Point(1) = { 0.0, 1.364, 0.0, 1.0 };
Point(2) = { 0.0, 8.04, 0.0, 1.0 };
Point(3) = { 0.0, 8.04, 2.5, 1.0 };
Point(4) = { 0.0, 1.364, 2.5, 1.0 };
Point(5) = { 0.152, 8.04, 2.5, 1.0 };
Point(6) = { 0.152, 1.364, 2.5, 1.0 };
Point(7) = { 0.152, 8.04, 0.0, 1.0 };
Point(8) = { 1.739, 8.327, 0.595, 1.0 };
Point(9) = { 1.739, 8.327, 0.15, 1.0 };
Point(10) = { 1.739, 8.434, 0.15, 1.0 };
Point(11) = { 1.739, 8.434, 0.595, 1.0 };
Point(12) = { 1.42, 0.0, 0.0, 1.0 };
Point(13) = { 1.42, 0.0, 2.988, 1.0 };
Point(14) = { 6.13, 0.0, 2.988, 1.0 };
Point(15) = { 6.13, 0.0, 0.0, 1.0 };
Point(16) = { 6.13, 0.56, 2.988, 1.0 };
Point(17) = { 5.525, 0.56, 2.988, 1.0 };
Point(18) = { 5.525, 0.56, 0.0, 1.0 };
Point(19) = { 6.13, 0.56, 0.0, 1.0 };
Point(20) = { 0.207, 8.434, 2.568, 1.0 };
Point(21) = { 0.207, 8.434, 0.595, 1.0 };
Point(22) = { 0.207, 8.582, 0.595, 1.0 };
Point(23) = { 0.207, 8.582, 2.568, 1.0 };
Point(24) = { 0.207, 8.327, 0.595, 1.0 };
Point(25) = { 0.207, 8.327, 0.15, 1.0 };
Point(26) = { 0.207, 8.582, 0.0, 1.0 };
Point(27) = { 0.207, 8.582, 0.15, 1.0 };
Point(28) = { 0.207, 8.434, 0.15, 1.0 };
Point(29) = { 0.207, 8.434, 0.0, 1.0 };
Point(30) = { 0.152, 8.434, 0.0, 1.0 };
Point(31) = { 0.152, 8.434, 2.988, 1.0 };
Point(32) = { 0.152, 1.364, 2.988, 1.0 };
Point(33) = { 1.739, 8.582, 2.568, 1.0 };
Point(34) = { 1.739, 8.434, 2.568, 1.0 };
Point(35) = { 1.739, 8.582, 0.15, 1.0 };
Point(36) = { 1.739, 8.582, 0.0, 1.0 };
Point(37) = { 1.42, 1.364, 2.988, 1.0 };
Point(38) = { 1.42, 1.364, 0.0, 1.0 };
Point(39) = { 1.739, 8.582, 0.595, 1.0 };
Point(40) = { 1.739, 8.434, 0.0, 1.0 };
Point(41) = { 2.267, 8.434, 2.568, 1.0 };
Point(42) = { 2.267, 8.582, 2.568, 1.0 };
Point(43) = { 3.794, 8.582, 2.568, 1.0 };
Point(44) = { 3.794, 8.434, 2.568, 1.0 };
Point(45) = { 2.267, 8.434, 0.595, 1.0 };
Point(46) = { 2.267, 8.582, 0.595, 1.0 };
Point(47) = { 3.794, 8.327, 0.595, 1.0 };
Point(48) = { 3.794, 8.434, 0.595, 1.0 };
Point(49) = { 3.794, 8.582, 0.595, 1.0 };
Point(50) = { 2.267, 8.327, 0.595, 1.0 };
Point(51) = { 2.267, 8.434, 0.15, 1.0 };
Point(52) = { 2.267, 8.327, 0.15, 1.0 };
Point(53) = { 3.794, 8.327, 0.15, 1.0 };
Point(54) = { 3.794, 8.582, 0.15, 1.0 };
Point(55) = { 3.794, 8.434, 0.15, 1.0 };
Point(56) = { 2.267, 8.582, 0.15, 1.0 };
Point(57) = { 5.905, 8.06, 0.0, 1.0 };
Point(58) = { 5.905, 8.06, 0.61, 1.0 };
Point(59) = { 5.905, 7.69, 0.916, 1.0 };
Point(60) = { 5.905, 7.69, 1.126, 1.0 };
Point(61) = { 5.905, 8.06, 1.126, 1.0 };
Point(62) = { 5.905, 8.06, 2.988, 1.0 };
Point(63) = { 5.905, 8.434, 2.988, 1.0 };
Point(64) = { 5.905, 8.434, 0.0, 1.0 };
Point(65) = { 3.794, 8.582, 0.0, 1.0 };
Point(66) = { 3.794, 8.434, 0.0, 1.0 };
Point(67) = { 2.267, 8.434, 0.0, 1.0 };
Point(68) = { 2.267, 8.582, 0.0, 1.0 };
Point(69) = { 5.525, 2.554, 2.988, 1.0 };
Point(70) = { 5.525, 2.554, 0.0, 1.0 };
Point(71) = { 4.297, 8.327, 0.595, 1.0 };
Point(72) = { 5.84, 8.327, 0.595, 1.0 };
Point(73) = { 5.84, 8.434, 0.595, 1.0 };
Point(74) = { 5.84, 8.582, 0.595, 1.0 };
Point(75) = { 4.297, 8.582, 0.595, 1.0 };
Point(76) = { 4.297, 8.434, 0.595, 1.0 };
Point(77) = { 5.84, 8.434, 2.568, 1.0 };
Point(78) = { 5.84, 8.582, 2.568, 1.0 };
Point(79) = { 6.19, 2.554, 2.988, 1.0 };
Point(80) = { 6.19, 8.06, 2.988, 1.0 };
Point(81) = { 6.19, 8.06, 1.126, 1.0 };
Point(82) = { 6.19, 7.69, 1.126, 1.0 };
Point(83) = { 6.19, 7.69, 0.916, 1.0 };
Point(84) = { 6.19, 8.06, 0.61, 1.0 };
Point(85) = { 6.19, 8.06, 0.0, 1.0 };
Point(86) = { 6.19, 2.554, 0.0, 1.0 };
Point(87) = { 5.84, 8.434, 0.15, 1.0 };
Point(88) = { 5.84, 8.327, 0.15, 1.0 };
Point(89) = { 4.297, 8.327, 0.15, 1.0 };
Point(90) = { 4.297, 8.434, 0.15, 1.0 };
Point(91) = { 4.297, 8.582, 0.15, 1.0 };
Point(92) = { 5.84, 8.582, 0.15, 1.0 };
Point(93) = { 4.297, 8.582, 2.568, 1.0 };
Point(94) = { 4.297, 8.434, 2.568, 1.0 };
Point(95) = { 4.297, 8.582, 0.0, 1.0 };
Point(96) = { 5.84, 8.582, 0.0, 1.0 };
Point(97) = { 5.84, 8.434, 0.0, 1.0 };
Point(98) = { 4.297, 8.434, 0.0, 1.0 };
Line(1) = { 1, 2 };
Line(2) = { 2, 3 };
Line(3) = { 3, 4 };
Line(4) = { 1, 4 };
Line(5) = { 3, 5 };
Line(6) = { 5, 6 };
Line(7) = { 4, 6 };
Line(8) = { 2, 7 };
Line(9) = { 5, 7 };
Line(10) = { 8, 9 };
Line(11) = { 9, 10 };
Line(12) = { 10, 11 };
Line(13) = { 8, 11 };
Line(14) = { 12, 13 };
Line(15) = { 13, 14 };
Line(16) = { 14, 15 };
Line(17) = { 12, 15 };
Line(18) = { 16, 17 };
Line(19) = { 17, 18 };
Line(20) = { 18, 19 };
Line(21) = { 16, 19 };
Line(22) = { 20, 21 };
Line(23) = { 21, 22 };
Line(24) = { 22, 23 };
Line(25) = { 20, 23 };
Line(26) = { 24, 25 };
Line(27) = { 9, 25 };
Line(28) = { 8, 24 };
Line(29) = { 26, 27 };
Line(30) = { 27, 28 };
Line(31) = { 28, 29 };
Line(32) = { 26, 29 };
Line(33) = { 7, 30 };
Line(34) = { 30, 31 };
Line(35) = { 31, 32 };
Line(36) = { 6, 32 };
Line(37) = { 33, 34 };
Line(38) = { 20, 34 };
Line(39) = { 23, 33 };
Line(40) = { 27, 35 };
Line(41) = { 26, 36 };
Line(42) = { 35, 36 };
Line(43) = { 10, 35 };
Line(44) = { 25, 28 };
Line(45) = { 14, 16 };
Line(46) = { 15, 19 };
Line(47) = { 13, 37 };
Line(48) = { 12, 38 };
Line(49) = { 37, 38 };
Line(50) = { 32, 37 };
Line(51) = { 1, 38 };
Line(52) = { 11, 39 };
Line(53) = { 22, 39 };
Line(54) = { 21, 24 };
Line(55) = { 33, 39 };
Line(56) = { 21, 28 };
Line(57) = { 11, 34 };
Line(58) = { 10, 40 };
Line(59) = { 36, 40 };
Line(60) = { 41, 42 };
Line(61) = { 42, 43 };
Line(62) = { 43, 44 };
Line(63) = { 41, 44 };
Line(64) = { 45, 46 };
Line(65) = { 42, 46 };
Line(66) = { 41, 45 };
Line(67) = { 47, 48 };
Line(68) = { 48, 49 };
Line(69) = { 46, 49 };
Line(70) = { 45, 50 };
Line(71) = { 47, 50 };
Line(72) = { 44, 48 };
Line(73) = { 43, 49 };
Line(74) = { 51, 52 };
Line(75) = { 50, 52 };
Line(76) = { 45, 51 };
Line(77) = { 52, 53 };
Line(78) = { 47, 53 };
Line(79) = { 54, 55 };
Line(80) = { 53, 55 };
Line(81) = { 51, 56 };
Line(82) = { 54, 56 };
Line(83) = { 57, 58 };
Line(84) = { 58, 59 };
Line(85) = { 59, 60 };
Line(86) = { 60, 61 };
Line(87) = { 61, 62 };
Line(88) = { 62, 63 };
Line(89) = { 63, 64 };
Line(90) = { 57, 64 };
Line(91) = { 65, 66 };
Line(92) = { 55, 66 };
Line(93) = { 54, 65 };
Line(94) = { 67, 68 };
Line(95) = { 56, 68 };
Line(96) = { 51, 67 };
Line(97) = { 17, 69 };
Line(98) = { 69, 70 };
Line(99) = { 18, 70 };
Line(100) = { 71, 72 };
Line(101) = { 72, 73 };
Line(102) = { 73, 74 };
Line(103) = { 74, 75 };
Line(104) = { 75, 76 };
Line(105) = { 71, 76 };
Line(106) = { 77, 78 };
Line(107) = { 74, 78 };
Line(108) = { 73, 77 };
Line(109) = { 79, 80 };
Line(110) = { 80, 81 };
Line(111) = { 81, 82 };
Line(112) = { 82, 83 };
Line(113) = { 83, 84 };
Line(114) = { 84, 85 };
Line(115) = { 85, 86 };
Line(116) = { 79, 86 };
Line(117) = { 69, 79 };
Line(118) = { 70, 86 };
Line(119) = { 73, 87 };
Line(120) = { 72, 88 };
Line(121) = { 87, 88 };
Line(122) = { 88, 89 };
Line(123) = { 89, 90 };
Line(124) = { 90, 91 };
Line(125) = { 91, 92 };
Line(126) = { 87, 92 };
Line(127) = { 78, 93 };
Line(128) = { 77, 94 };
Line(129) = { 93, 94 };
Line(130) = { 71, 89 };
Line(131) = { 76, 90 };
Line(132) = { 75, 93 };
Line(133) = { 95, 96 };
Line(134) = { 92, 96 };
Line(135) = { 91, 95 };
Line(136) = { 57, 85 };
Line(137) = { 58, 84 };
Line(138) = { 87, 97 };
Line(139) = { 96, 97 };
Line(140) = { 60, 82 };
Line(141) = { 61, 81 };
Line(142) = { 76, 94 };
Line(143) = { 64, 97 };
Line(144) = { 31, 63 };
Line(145) = { 29, 30 };
Line(146) = { 40, 67 };
Line(147) = { 48, 55 };
Line(148) = { 66, 98 };
Line(149) = { 90, 98 };
Line(150) = { 65, 68 };
Line(151) = { 62, 80 };
Line(152) = { 95, 98 };
Line(153) = { 59, 83 };
Line Loop(1) = { 1, 2, 3, -4 };
Line Loop(2) = { 5, 6, -7, -3 };
Line Loop(3) = { 8, -9, -5, -2 };
Line Loop(4) = { 10, 11, 12, -13 };
Line Loop(5) = { 14, 15, 16, -17 };
Line Loop(6) = { 18, 19, 20, -21 };
Line Loop(7) = { 22, 23, 24, -25 };
Line Loop(8) = { 26, -27, -10, 28 };
Line Loop(9) = { 29, 30, 31, -32 };
Line Loop(10) = { 33, 34, 35, -36, -6, 9 };
Line Loop(11) = { 37, -38, 25, 39 };
Line Loop(12) = { -40, -29, 41, -42 };
Line Loop(13) = { 40, -43, -11, 27, 44, -30 };
Line Loop(14) = { 45, 21, -46, -16 };
Line Loop(15) = { -47, -14, 48, -49 };
Line Loop(16) = { 4, 7, 36, 50, 49, -51 };
Line Loop(17) = { 13, 52, -53, -23, 54, -28 };
Line Loop(18) = { 53, -55, -39, -24 };
Line Loop(19) = { -26, -54, 56, -44 };
Line Loop(20) = { 57, -37, 55, -52 };
Line Loop(21) = { -58, 43, 42, 59 };
Line Loop(22) = { 60, 61, 62, -63 };
Line Loop(23) = { 64, -65, -60, 66 };
Line Loop(24) = { 67, 68, -69, -64, 70, -71 };
Line Loop(25) = { -68, -72, -62, 73 };
Line Loop(26) = { 69, -73, -61, 65 };
Line Loop(27) = { 74, -75, -70, 76 };
Line Loop(28) = { 77, -78, 71, 75 };
Line Loop(29) = { 79, -80, -77, -74, 81, -82 };
Line Loop(30) = { 83, 84, 85, 86, 87, 88, 89, -90 };
Line Loop(31) = { 91, -92, -79, 93 };
Line Loop(32) = { 94, -95, -81, 96 };
Line Loop(33) = { 97, 98, -99, -19 };
Line Loop(34) = { 100, 101, 102, 103, 104, -105 };
Line Loop(35) = { 106, -107, -102, 108 };
Line Loop(36) = { 109, 110, 111, 112, 113, 114, 115, -116 };
Line Loop(37) = { 117, 116, -118, -98 };
Line Loop(38) = { -119, -101, 120, -121 };
Line Loop(39) = { 122, 123, 124, 125, -126, 121 };
Line Loop(40) = { -127, -106, 128, -129 };
Line Loop(41) = { -123, -130, 105, 131 };
Line Loop(42) = { 127, -132, -103, 107 };
Line Loop(43) = { -122, -120, -100, 130 };
Line Loop(44) = { 133, -134, -125, 135 };
Line Loop(45) = { 136, -114, -137, -83 };
Line Loop(46) = { -138, 126, 134, 139 };
Line Loop(47) = { 140, -111, -141, -86 };
Line Loop(48) = { 142, -128, -108, 119, 138, -143, -89, -144, -34, -145, -31, -56, -22, 38, -57, -12, 58, 146, -96, -76, -66, 63, 72, 147, 92, 148, -149, -131 };
Line Loop(49) = { -150, -93, 82, 95 };
Line Loop(50) = { -117, -97, -18, -45, -15, 47, -50, -35, 144, -88, 151, -109 };
Line Loop(51) = { -152, -135, -124, 149 };
Line Loop(52) = { 153, -112, -140, -85 };
Line Loop(53) = { 141, -110, -151, -87 };
Line Loop(54) = { -147, -67, 78, 80 };
Line Loop(55) = { 137, -113, -153, -84 };
Line Loop(56) = { 129, -142, -104, 132 };
Line Loop(57) = { 99, 118, -115, -136, 90, 143, -139, -133, 152, -148, -91, 150, -94, -146, -59, -41, 32, 145, -33, -8, -1, 51, -48, 17, 46, -20 };
Plane Surface(1) = { 1 };
Plane Surface(2) = { 2 };
Plane Surface(3) = { 3 };
Plane Surface(4) = { 4 };
Plane Surface(5) = { 5 };
Plane Surface(6) = { 6 };
Plane Surface(7) = { 7 };
Plane Surface(8) = { 8 };
Plane Surface(9) = { 9 };
Plane Surface(10) = { 10 };
Plane Surface(11) = { 11 };
Plane Surface(12) = { 12 };
Plane Surface(13) = { 13 };
Plane Surface(14) = { 14 };
Plane Surface(15) = { 15 };
Plane Surface(16) = { 16 };
Plane Surface(17) = { 17 };
Plane Surface(18) = { 18 };
Plane Surface(19) = { 19 };
Plane Surface(20) = { 20 };
Plane Surface(21) = { 21 };
Plane Surface(22) = { 22 };
Plane Surface(23) = { 23 };
Plane Surface(24) = { 24 };
Plane Surface(25) = { 25 };
Plane Surface(26) = { 26 };
Plane Surface(27) = { 27 };
Plane Surface(28) = { 28 };
Plane Surface(29) = { 29 };
Plane Surface(30) = { 30 };
Plane Surface(31) = { 31 };
Plane Surface(32) = { 32 };
Plane Surface(33) = { 33 };
Plane Surface(34) = { 34 };
Plane Surface(35) = { 35 };
Plane Surface(36) = { 36 };
Plane Surface(37) = { 37 };
Plane Surface(38) = { 38 };
Plane Surface(39) = { 39 };
Plane Surface(40) = { 40 };
Plane Surface(41) = { 41 };
Plane Surface(42) = { 42 };
Plane Surface(43) = { 43 };
Plane Surface(44) = { 44 };
Plane Surface(45) = { 45 };
Plane Surface(46) = { 46 };
Plane Surface(47) = { 47 };
Plane Surface(48) = { 48 };
Plane Surface(49) = { 49 };
Plane Surface(50) = { 50 };
Plane Surface(51) = { 51 };
Plane Surface(52) = { 52 };
Plane Surface(53) = { 53 };
Plane Surface(54) = { 54 };
Plane Surface(55) = { 55 };
Plane Surface(56) = { 56 };
Plane Surface(57) = { 57 };
Surface Loop(1) = { 1, 2, 3, 4, 5, 6, 7, 8, 9, 10, 11, 12, 13, 14, 15, 16, 17, 18, 19, 20, 21, 22, 23, 24, 25, 26, 27, 28, 29, 30, 31, 32, 33, 34, 35, 36, 37, 38, 39, 40, 41, 42, 43, 44, 45, 46, 47, 48, 49, 50, 51, 52, 53, 54, 55, 56, 57 };
Physical Surface("mat_CR2_plaster") = { 1, 5, 16 };
Physical Surface("mat_CR2_concrete") = { 2, 3, 4, 6, 7, 8, 9, 10, 11, 12, 13, 14, 15, 17, 19, 20, 21, 22, 23, 24, 25, 27, 28, 29, 30, 31, 32, 33, 34, 35, 36, 37, 38, 39, 40, 41, 43, 44, 45, 46, 47, 48, 49, 51, 52, 53, 54, 55, 56 };
Physical Surface("mat_CR2_glass") = { 18, 26, 42 };
Physical Surface("mat_CR2_ceiling") = { 50 };
Physical Surface("mat_CR2_floor") = { 57 };
Volume( 1 ) = { 1 };
Physical Volume("BRASCR2simple") = { 1 };
Physical Line ("default") = {1, 2, 3, 4, 5, 6, 7, 8, 9, 10, 11, 12, 13, 14, 15, 16, 17, 18, 19, 20, 21, 22, 23, 24, 25, 26, 27, 28, 29, 30, 31, 32, 33, 34, 35, 36, 37, 38, 39, 40, 41, 42, 43, 44, 45, 46, 47, 48, 49, 50, 51, 52, 53, 54, 55, 56, 57, 58, 59, 60, 61, 62, 63, 64, 65, 66, 67, 68, 69, 70, 71, 72, 73, 74, 75, 76, 77, 78, 79, 80, 81, 82, 83, 84, 85, 86, 87, 88, 89, 90, 91, 92, 93, 94, 95, 96, 97, 98, 99, 100, 101, 102, 103, 104, 105, 106, 107, 108, 109, 110, 111, 112, 113, 114, 115, 116, 117, 118, 119, 120, 121, 122, 123, 124, 125, 126, 127, 128, 129, 130, 131, 132, 133, 134, 135, 136, 137, 138, 139, 140, 141, 142, 143, 144, 145, 146, 147, 148, 149, 150, 151, 152, 153};
Mesh.Algorithm = 6;
Mesh.Algorithm3D = 1; // Delaunay3D, works for boundary layer insertion.
Mesh.Optimize = 1; // Gmsh smoother, works with boundary layers (netgen version does not).
Mesh.CharacteristicLengthFromPoints = 1;
// Recombine Surface "*";

//+
Physical Surface("mat_CR2_ceiling", 4) += {50};
